<?xml version="1.0" encoding="UTF-8" standalone="no" ?>
<!DOCTYPE svg PUBLIC "-//W3C//DTD SVG 1.1//EN" "http://www.w3.org/Graphics/SVG/1.1/DTD/svg11.dtd">
<svg xmlns="http://www.w3.org/2000/svg" xmlns:xlink="http://www.w3.org/1999/xlink" version="1.1" width="1280" height="1024" viewBox="0 0 1280 1024" xml:space="preserve">
<desc>Created with Fabric.js 5.3.0</desc>
<defs>
</defs>
<g transform="matrix(1 0 0 1 640 512)" id="background-logo"  >
<rect style="stroke: none; stroke-width: 0; stroke-dasharray: none; stroke-linecap: butt; stroke-dashoffset: 0; stroke-linejoin: miter; stroke-miterlimit: 4; fill: rgb(244,248,255); fill-rule: nonzero; opacity: 1;"  paint-order="stroke"  x="-640" y="-512" rx="0" ry="0" width="1280" height="1024" />
</g>
<g transform="matrix(1.9211538461538462 0 0 1.9211538461538462 640.6479799851742 366.96029040130713)" id="logo-logo"  >
<g style=""  paint-order="stroke"   >
		<g transform="matrix(0.12995265205602785 0 0 -0.12995265205602785 0 21.87557968385144)"  >
<path style="stroke: none; stroke-width: 1; stroke-dasharray: none; stroke-linecap: butt; stroke-dashoffset: 0; stroke-linejoin: miter; stroke-miterlimit: 4; fill: rgb(5,75,159); fill-rule: nonzero; opacity: 1;"  paint-order="stroke"  transform=" translate(-4056.67, -840)" d="M 5026.67 1680 C 4970 1580 4656.67 1443.33 4373.33 1293.33 C 4211.37 1207.59 4131.18 1082.71 4092.12 991.3789999999999 L 4098.83 1187.34 C 4148.03 1204.73 4183.33 1251.52 4183.33 1306.6699999999998 C 4183.33 1376.6299999999999 4126.63 1433.34 4056.67 1433.34 C 3986.71 1433.34 3930 1376.6299999999999 3930 1306.6699999999998 C 3930 1251.5199999999998 3965.3 1204.7299999999998 4014.49 1187.34 L 4021.2 991.3979999999999 C 3982.14 1082.7099999999998 3901.95 1207.59 3740 1293.33 C 3456.67 1443.33 3143.33 1580 3086.67 1680 C 3086.67 1680 3116.67 1470 3423.33 1230 L 3230 1323.33 C 3230 1323.33 3300 1140 3546.67 1010 L 3400 1056.66 C 3400 1056.66 3574.72 658.711 4035.71 567.2620000000001 L 4055.13 0 L 4058.2000000000003 0 L 4077.61 567.262 C 4538.610000000001 658.7109999999999 4713.33 1056.6599999999999 4713.33 1056.6599999999999 L 4566.67 1010 C 4813.33 1140 4883.33 1323.33 4883.33 1323.33 L 4690 1230 C 4996.66 1470 5026.67 1680 5026.67 1680" stroke-linecap="round" />
</g>
		<g transform="matrix(0.12995265205602785 0 0 -0.12995265205602785 -58.48454129455513 28.41746116467786)"  >
<path style="stroke: none; stroke-width: 1; stroke-dasharray: none; stroke-linecap: butt; stroke-dashoffset: 0; stroke-linejoin: miter; stroke-miterlimit: 4; fill: rgb(55,182,255); fill-rule: nonzero; opacity: 1;"  paint-order="stroke"  transform=" translate(-3606.625, -789.6595)" d="M 3989.13 466.621 C 3673.75 496.25 3417.1000000000004 730.988 3354.58 1035.76 C 3354.41 1036.1299999999999 3354.29 1036.42 3354.22 1036.56 L 3321.04 1112.1599999999999 C 3275.5299999999997 1156.9599999999998 3243.56 1199.5299999999997 3221.88 1233.35 C 3220.76 1215.6899999999998 3220 1197.9299999999998 3220 1180 C 3220 740.012 3561.45 378.53099999999995 3993.25 345.96900000000005 L 3989.13 466.62100000000004" stroke-linecap="round" />
</g>
		<g transform="matrix(0.12995265205602785 0 0 -0.12995265205602785 -0.0006497632601849546 -98.27344430106967)"  >
<path style="stroke: none; stroke-width: 1; stroke-dasharray: none; stroke-linecap: butt; stroke-dashoffset: 0; stroke-linejoin: miter; stroke-miterlimit: 4; fill: rgb(55,182,255); fill-rule: nonzero; opacity: 1;"  paint-order="stroke"  transform=" translate(-4056.6650000000004, -1764.56)" d="M 3422.07 1512.45 C 3542.09 1740.63 3781.44 1896.67 4056.67 1896.67 C 4331.9 1896.67 4571.24 1740.63 4691.26 1512.45 C 4727.9800000000005 1531.5800000000002 4763.7 1550.65 4796.9400000000005 1569.25 C 4656.63 1835.02 4377.52 2016.67 4056.6700000000005 2016.67 C 3735.8000000000006 2016.67 3456.7100000000005 1835.02 3316.3900000000003 1569.25 C 3349.63 1550.65 3385.3500000000004 1531.58 3422.07 1512.45" stroke-linecap="round" />
</g>
		<g transform="matrix(0.12995265205602785 0 0 -0.12995265205602785 58.48259200477429 28.41746116467786)"  >
<path style="stroke: none; stroke-width: 1; stroke-dasharray: none; stroke-linecap: butt; stroke-dashoffset: 0; stroke-linejoin: miter; stroke-miterlimit: 4; fill: rgb(55,182,255); fill-rule: nonzero; opacity: 1;"  paint-order="stroke"  transform=" translate(-4506.700000000001, -789.6595000000002)" d="M 4792.3 1112.16 L 4759.110000000001 1036.5600000000002 C 4759.040000000001 1036.42 4758.920000000001 1036.13 4758.750000000001 1035.7600000000002 C 4696.2300000000005 730.9690000000003 4439.580000000001 496.23000000000025 4124.1900000000005 466.6210000000002 L 4120.070000000001 345.9690000000002 C 4551.870000000001 378.53100000000023 4893.330000000001 740.0120000000002 4893.330000000001 1180.0000000000002 C 4893.330000000001 1197.9300000000003 4892.570000000001 1215.6900000000003 4891.450000000001 1233.3500000000001 C 4869.77 1199.5300000000002 4837.800000000001 1156.96 4792.300000000001 1112.16" stroke-linecap="round" />
</g>
</g>
</g>
<g transform="matrix(1.9211538461538462 0 0 1.9211538461538462 641.5672521005588 723.9364031676009)" id="text-logo"  >
<g style=""  paint-order="stroke"   >
		<g transform="matrix(1 0 0 1 0 0)" id="text-logo-path-0"  >
<path style="stroke: none; stroke-width: 0; stroke-dasharray: none; stroke-linecap: butt; stroke-dashoffset: 0; stroke-linejoin: miter; stroke-miterlimit: 4; fill: rgb(5,75,159); fill-rule: nonzero; opacity: 1;"  paint-order="stroke"  transform=" translate(-151.47, 19.634999999999998)" d="M 22.33 0.81 C 33.7 0.81 42.75 -8.41 42.75 -19.66 C 42.75 -31.09 33.64 -40.08 22.33 -40.08 C 10.96 -40.08 1.86 -30.91 1.86 -19.66 C 1.86 -8.47 11.02 0.81 22.33 0.81 Z M 11.48 -19.66 C 11.48 -25.58 16.47 -30.45 22.33 -30.45 C 28.3 -30.45 33.06 -25.58 33.06 -19.66 C 33.06 -13.75 28.3 -8.87 22.33 -8.87 C 16.41 -8.87 11.48 -13.8 11.48 -19.66 Z M 65.89 -12.76 L 73.02 0 L 84.04 0 L 75.75 -14.96 C 79.58 -17.46 81.78 -21.69 81.78 -26.22 C 81.78 -33.7 75.81 -39.67 68.38 -39.67 L 51.56 -39.67 L 51.56 0 L 61.25 0 L 61.25 -12.76 Z M 61.25 -21.92 L 61.25 -30.51 L 68.38 -30.51 C 70.82 -30.51 72.67 -28.65 72.67 -26.22 C 72.67 -23.9 70.7 -21.92 68.38 -21.92 Z M 108.29 -39.67 L 93.15 -39.67 L 93.15 0 L 102.78 0 L 102.78 -12.76 L 108.29 -12.76 C 115.77 -12.76 121.8 -18.79 121.8 -26.22 C 121.8 -33.64 115.77 -39.67 108.29 -39.67 Z M 102.78 -21.92 L 102.78 -30.51 L 108.29 -30.51 C 110.78 -30.51 112.58 -28.71 112.58 -26.22 C 112.58 -23.78 110.72 -21.92 108.29 -21.92 Z M 151.73 0 L 162.05 0 L 147.49 -39.67 L 137.17 -39.67 L 122.67 0 L 132.99 0 L 135.55 -6.9 L 149.18 -6.9 Z M 138.85 -16.07 L 142.39 -25.64 L 145.81 -16.07 Z M 199.69 -39.61 L 199.64 -39.67 L 189.25 -22.33 L 178.87 -39.67 L 169.19 -39.67 L 169.19 0 L 178.87 0 L 178.87 -21.98 L 188.09 -6.5 L 190.47 -6.5 L 199.69 -21.98 L 199.69 0 L 209.32 0 L 209.32 -39.67 L 199.69 -39.67 Z M 245.98 0 L 256.3 0 L 241.74 -39.67 L 231.42 -39.67 L 216.92 0 L 227.24 0 L 229.8 -6.9 L 243.43 -6.9 Z M 233.1 -16.07 L 236.64 -25.64 L 240.06 -16.07 Z M 301.08 -39.67 L 289.59 -39.67 L 281.47 -27.03 L 273.3 -39.67 L 261.75 -39.67 L 274.63 -19.72 L 261.93 0 L 273.47 0 L 281.47 -12.41 L 289.42 0 L 300.9 0 L 288.2 -19.72 Z" stroke-linecap="round" />
</g>
</g>
</g>
<g transform="matrix(1.9211538461538462 0 0 1.9211538461538462 635.8073742642337 845.2060121676011)" id="tagline-e9f9ab41-aef9-4726-8bf3-5ba2da8497e9-logo"  >
<g style=""  paint-order="stroke"   >
		<g transform="matrix(1 0 0 1 0 0)" id="tagline-e9f9ab41-aef9-4726-8bf3-5ba2da8497e9-logo-path-0"  >
<path style="stroke: none; stroke-width: 0; stroke-dasharray: none; stroke-linecap: butt; stroke-dashoffset: 0; stroke-linejoin: miter; stroke-miterlimit: 4; fill: rgb(5,75,159); fill-rule: nonzero; opacity: 1;"  paint-order="stroke"  transform=" translate(-249.00000000000003, 11.5)" d="M 11.68 2.3 L 9.84 1.75 L 9.89 1.61 Q 9.89 1.15 9.11 1.1 L 9.11 1.1 Q 8.14 0.51 7.38 -0.46 Q 6.62 -1.43 6.35 -2.16 L 6.35 -2.16 Q 6.03 -2.9 6.03 -2.94 L 6.03 -2.94 Q 6.03 -3.08 6.19 -3.17 Q 6.35 -3.27 6.58 -3.4 L 6.58 -3.4 Q 6.85 -3.63 7.18 -3.63 L 7.18 -3.63 Q 7.36 -3.63 7.52 -3.43 Q 7.68 -3.22 7.96 -2.71 L 7.96 -2.71 Q 8.51 -1.75 9.84 -1.17 Q 11.18 -0.6 12.88 -0.6 L 12.88 -0.6 Q 14.95 -0.6 16.74 -1.43 L 16.74 -1.43 Q 17.94 -1.93 18.49 -2.42 Q 19.04 -2.9 19.04 -3.5 L 19.04 -3.5 Q 19.04 -4.05 18.54 -4.83 L 18.54 -4.83 Q 18.4 -5.2 18.15 -5.5 Q 17.89 -5.8 17.43 -6.21 L 17.43 -6.21 Q 17.16 -6.44 16.38 -7.22 L 16.38 -7.22 Q 15.64 -7.5 14.86 -7.96 L 14.86 -7.96 L 13.89 -8.42 Q 12.65 -8.97 11.02 -10.33 Q 9.38 -11.68 8.83 -12.7 L 8.83 -12.7 Q 8.19 -13.29 7.82 -14.35 Q 7.45 -15.41 7.45 -16.65 L 7.45 -16.65 Q 7.45 -18.31 8.14 -19.69 L 8.14 -19.69 Q 8.69 -20.93 10.58 -23.14 Q 12.47 -25.35 13.48 -26.04 L 13.48 -26.04 L 14.67 -27.19 Q 14.72 -27.37 14.81 -27.39 Q 14.9 -27.42 14.95 -27.42 L 14.95 -27.42 Q 15.09 -27.51 15.92 -27.85 Q 16.74 -28.2 17.66 -29.07 L 17.66 -29.07 Q 20.79 -30.59 22.7 -31.26 Q 24.61 -31.92 25.85 -31.92 L 25.85 -31.92 Q 27.6 -31.83 28.82 -30.84 Q 30.04 -29.85 30.27 -28.24 L 30.27 -28.24 Q 30.36 -27.97 30.36 -27.42 L 30.36 -27.42 Q 30.36 -25.76 29.16 -23.85 Q 27.97 -21.94 26.45 -21.07 L 26.45 -21.07 Q 25.3 -20.56 24.84 -20.56 L 24.84 -20.56 Q 24.52 -20.56 24.4 -20.79 Q 24.29 -21.02 24.33 -21.53 L 24.33 -21.53 Q 24.33 -21.94 24.63 -22.47 Q 24.93 -23 25.99 -24.2 L 25.99 -24.2 Q 27.88 -26.91 27.88 -28.24 L 27.88 -28.24 Q 27.88 -29.03 27.19 -29.07 L 27.19 -29.07 Q 26.68 -29.21 24.63 -28.84 Q 22.59 -28.47 22.59 -28.24 L 22.59 -28.24 Q 22.59 -28.2 22.56 -28.08 Q 22.54 -27.97 22.4 -28.01 L 22.4 -28.01 Q 22.22 -28.06 19 -26.11 Q 15.78 -24.15 15.69 -23.92 L 15.69 -23.92 Q 15.64 -23.69 15.34 -23.44 Q 15.04 -23.18 14.63 -23 L 14.63 -23 Q 13.75 -22.49 13.02 -21.53 Q 12.28 -20.56 11.27 -18.77 L 11.27 -18.77 Q 10.72 -17.99 10.37 -17.07 Q 10.03 -16.15 10.03 -15.41 L 10.03 -15.41 Q 10.03 -14.9 10.17 -14.54 L 10.17 -14.54 Q 10.4 -13.75 11.59 -12.63 Q 12.79 -11.5 14.58 -10.44 L 14.58 -10.44 Q 16.93 -9.11 18.52 -7.84 Q 20.1 -6.58 20.52 -5.7 L 20.52 -5.7 Q 21.57 -4.23 21.57 -2.44 L 21.57 -2.44 Q 21.57 -1.79 21.44 -1.24 L 21.44 -1.24 Q 21.07 -0.46 20.29 0.3 Q 19.5 1.06 18.95 1.01 L 18.95 1.01 Q 18.49 1.15 18.17 1.36 Q 17.85 1.56 17.62 1.66 L 17.62 1.66 Q 17.11 1.98 15.2 2.19 Q 13.29 2.39 11.68 2.3 L 11.68 2.3 Z M 48.9 -1.93 Q 48.25 -2.16 47.68 -3.06 Q 47.1 -3.96 47.1 -5.98 L 47.1 -5.98 L 47.15 -8.1 Q 47.15 -8.65 47.08 -8.88 Q 47.01 -9.11 46.83 -9.11 L 46.83 -9.11 Q 46.23 -9.11 44.27 -7.54 Q 42.32 -5.98 40.34 -3.82 L 40.34 -3.82 Q 40.11 -3.59 39.72 -3.15 Q 39.33 -2.71 39.01 -2.51 Q 38.69 -2.3 38.41 -2.3 L 38.41 -2.3 Q 38 -2.3 37.63 -2.62 L 37.63 -2.62 L 37.12 -3.04 Q 36.8 -3.31 36.8 -3.68 L 36.8 -3.68 L 36.89 -4.09 L 37.95 -7.13 Q 38.96 -9.48 39.15 -10.1 Q 39.33 -10.72 39.1 -10.67 L 39.1 -10.67 Q 38.69 -10.63 37.95 -10.23 Q 37.21 -9.84 37.03 -9.48 L 37.03 -9.48 Q 36.94 -9.48 36.43 -8.99 Q 35.93 -8.51 35.56 -8.28 L 35.56 -8.28 Q 35.14 -7.68 33.53 -6.12 L 33.53 -6.12 L 32.43 -5.06 Q 31.74 -4.51 30.5 -2.81 L 30.5 -2.81 Q 29.85 -1.98 29.76 -1.98 L 29.76 -1.98 Q 28.34 -1.98 27.97 -3.36 L 27.97 -3.36 Q 27.78 -3.68 27.78 -4.23 L 27.78 -4.23 Q 27.78 -4.97 28.34 -7.27 L 28.34 -7.27 Q 28.75 -8.83 28.8 -9.2 L 28.8 -9.2 L 29.03 -10.12 Q 29.12 -10.72 29.44 -11.55 Q 29.76 -12.37 30.54 -14.17 L 30.54 -14.17 Q 31 -15.46 31 -16.1 L 31 -16.1 Q 31 -16.7 31.42 -17.04 Q 31.83 -17.39 32.34 -17.39 L 32.34 -17.39 Q 32.98 -17.39 33.44 -16.88 Q 33.9 -16.38 33.9 -15.55 L 33.9 -15.55 Q 33.9 -14.77 33.53 -13.94 L 33.53 -13.94 L 33.03 -12.7 Q 32.66 -11.96 32.09 -10.33 Q 31.51 -8.69 31.51 -8.51 L 31.51 -8.51 Q 31.56 -8.37 31.83 -8.58 Q 32.11 -8.79 32.48 -9.11 L 32.48 -9.11 Q 32.89 -9.52 33.44 -9.94 L 33.44 -9.94 Q 34.82 -11.22 36.73 -12.42 Q 38.64 -13.62 39.65 -13.94 L 39.65 -13.94 Q 40.25 -13.94 40.55 -13.78 Q 40.85 -13.62 41.22 -13.22 Q 41.58 -12.83 41.77 -12.65 L 41.77 -12.65 Q 42.18 -12.24 42.18 -11.45 L 42.18 -11.45 Q 42.18 -11.22 42.09 -10.86 L 42.09 -10.86 Q 41.91 -10.21 41.61 -9.29 Q 41.31 -8.37 41.17 -7.96 L 41.17 -7.96 Q 41.49 -8.23 42.32 -8.92 Q 43.15 -9.61 43.84 -10.21 L 43.84 -10.21 Q 46.14 -12.01 47.47 -12.01 L 47.47 -12.01 Q 48.44 -12.01 49.13 -10.99 L 49.13 -10.99 Q 49.54 -10.58 49.63 -10.14 Q 49.73 -9.71 49.73 -8.97 Q 49.73 -8.23 49.73 -7.82 L 49.73 -7.82 Q 49.77 -7.5 49.77 -6.72 L 49.77 -6.72 Q 49.82 -6.35 49.89 -5.29 Q 49.96 -4.23 50.09 -4.09 L 50.09 -4.09 Q 50.32 -3.82 51.66 -3.59 L 51.66 -3.59 Q 52.49 -3.45 52.49 -2.85 L 52.49 -2.85 Q 52.49 -2.44 51.89 -2.02 L 51.89 -2.02 Q 51.29 -1.66 50.42 -1.66 L 50.42 -1.66 Q 49.59 -1.66 48.9 -1.93 L 48.9 -1.93 Z M 55.43 -1.66 Q 55.29 -1.93 54.99 -2.23 Q 54.69 -2.53 54.69 -2.62 L 54.69 -2.62 Q 54.69 -3.13 54.46 -3.4 L 54.46 -3.4 Q 54.37 -3.5 54.37 -3.82 L 54.37 -3.82 Q 54.37 -4.55 55.08 -6.33 Q 55.8 -8.1 56.95 -10.17 L 56.95 -10.17 Q 57.22 -10.44 57.66 -11.13 Q 58.1 -11.82 58.24 -11.91 L 58.24 -11.91 Q 58.24 -12.1 58.37 -12.26 Q 58.51 -12.42 58.7 -12.42 L 58.7 -12.42 L 58.7 -12.7 Q 58.7 -13.11 60.21 -14.7 Q 61.73 -16.28 62.7 -16.88 L 62.7 -16.88 Q 63.85 -17.66 65.04 -17.66 L 65.04 -17.66 Q 65.87 -17.66 66.47 -17.2 L 66.47 -17.2 Q 66.7 -16.93 68.59 -15.23 L 68.59 -15.23 L 70.29 -13.71 L 69.46 -11.41 Q 69.05 -10.17 69.05 -9.15 L 69.05 -9.15 Q 69.05 -7.41 70.06 -5.8 L 70.06 -5.8 Q 70.29 -5.29 70.98 -4.83 Q 71.67 -4.37 72.36 -4.28 L 72.36 -4.28 Q 73.37 -4.09 73.37 -3.27 L 73.37 -3.27 Q 73.37 -2.35 72.54 -2.16 L 72.54 -2.16 Q 72.36 -2.12 71.99 -2.12 L 71.99 -2.12 Q 69.28 -2.12 67.3 -5.93 L 67.3 -5.93 Q 67.11 -6.21 66.81 -6.95 Q 66.52 -7.68 66.47 -7.96 L 66.47 -7.96 Q 66.19 -7.59 65.78 -7.08 Q 65.37 -6.58 65 -6.21 L 65 -6.21 Q 59.98 -1.2 57.09 -1.2 L 57.09 -1.2 Q 56.17 -1.2 55.43 -1.66 L 55.43 -1.66 Z M 57.09 -4.23 Q 57.09 -4 57.57 -4.09 Q 58.05 -4.19 58.76 -4.55 Q 59.48 -4.92 60.21 -5.52 L 60.21 -5.52 Q 64.17 -8.92 65.92 -11.45 L 65.92 -11.45 L 66.93 -13.11 Q 66.47 -14.08 65.96 -14.51 Q 65.46 -14.95 65.04 -14.95 L 65.04 -14.95 Q 64.08 -14.95 62.01 -12.54 Q 59.94 -10.12 58.24 -6.85 L 58.24 -6.85 Q 57.82 -6.07 57.5 -5.27 Q 57.18 -4.46 57.09 -4.23 L 57.09 -4.23 Z M 77.79 0 Q 77.65 0.05 77.33 0.05 L 77.33 0.05 Q 76.59 0.05 76.18 -0.69 Q 75.76 -1.43 75.76 -2.71 L 75.76 -2.71 Q 75.76 -3.77 76.04 -5.15 L 76.04 -5.15 Q 76.54 -6.49 76.54 -7.08 L 76.54 -7.08 Q 76.68 -7.96 77.49 -10.23 Q 78.29 -12.51 78.52 -12.97 L 78.52 -12.97 Q 78.71 -12.97 78.84 -13.27 Q 78.98 -13.57 78.98 -13.94 L 78.98 -13.94 Q 78.98 -14.35 79.14 -14.79 Q 79.3 -15.23 79.49 -15.41 L 79.49 -15.41 Q 79.49 -15.55 79.6 -15.92 Q 79.72 -16.28 79.72 -16.42 L 79.72 -16.42 Q 79.72 -16.51 79.83 -16.77 Q 79.95 -17.02 79.95 -17.16 L 79.95 -17.16 Q 80.68 -18.58 82.52 -23.57 Q 84.36 -28.57 84.36 -29.12 L 84.36 -29.12 Q 84.36 -29.85 85.1 -29.85 L 85.1 -29.85 Q 85.33 -30.08 85.84 -30.08 L 85.84 -30.08 L 86.57 -29.35 Q 86.89 -29.03 86.99 -28.68 Q 87.08 -28.34 87.08 -27.65 L 87.08 -27.65 Q 87.08 -26.96 86.89 -26.45 Q 86.71 -25.94 85.97 -24.38 L 85.97 -24.38 Q 85.84 -24.06 85.61 -23.62 Q 85.38 -23.18 85.1 -22.54 L 85.1 -22.54 Q 85.01 -22.31 84.36 -20.88 L 84.36 -20.88 Q 83.9 -19.96 83.9 -19.83 L 83.9 -19.83 Q 83.9 -19.69 83.72 -19.25 Q 83.54 -18.81 83.4 -18.35 L 83.4 -18.35 Q 83.03 -17.62 82.22 -15.75 Q 81.42 -13.89 81.42 -13.71 L 81.42 -13.71 Q 81.42 -13.2 81.19 -12.97 L 81.19 -12.97 Q 81.05 -12.97 81.01 -12.77 Q 80.96 -12.56 80.96 -12.47 L 80.96 -12.47 Q 80.96 -12.01 80.22 -10.03 L 80.22 -10.03 L 79.81 -8.69 Q 78.94 -5.7 78.59 -4.32 Q 78.25 -2.94 78.25 -1.98 L 78.25 -1.98 Q 78.25 -0.83 78.18 -0.51 Q 78.11 -0.18 77.79 0 L 77.79 0 Z M 87.22 0 Q 87.08 0.05 86.76 0.05 L 86.76 0.05 Q 86.02 0.05 85.61 -0.69 Q 85.19 -1.43 85.19 -2.71 L 85.19 -2.71 Q 85.19 -3.77 85.47 -5.15 L 85.47 -5.15 Q 85.97 -6.49 85.97 -7.08 L 85.97 -7.08 Q 86.11 -7.96 86.92 -10.23 Q 87.72 -12.51 87.95 -12.97 L 87.95 -12.97 Q 88.14 -12.97 88.27 -13.27 Q 88.41 -13.57 88.41 -13.94 L 88.41 -13.94 Q 88.41 -14.35 88.57 -14.79 Q 88.73 -15.23 88.92 -15.41 L 88.92 -15.41 Q 88.92 -15.55 89.03 -15.92 Q 89.15 -16.28 89.15 -16.42 L 89.15 -16.42 Q 89.15 -16.51 89.26 -16.77 Q 89.38 -17.02 89.38 -17.16 L 89.38 -17.16 Q 90.11 -18.58 91.95 -23.57 Q 93.79 -28.57 93.79 -29.12 L 93.79 -29.12 Q 93.79 -29.85 94.53 -29.85 L 94.53 -29.85 Q 94.76 -30.08 95.27 -30.08 L 95.27 -30.08 L 96 -29.35 Q 96.32 -29.03 96.42 -28.68 Q 96.51 -28.34 96.51 -27.65 L 96.51 -27.65 Q 96.51 -26.96 96.32 -26.45 Q 96.14 -25.94 95.4 -24.38 L 95.4 -24.38 Q 95.27 -24.06 95.04 -23.62 Q 94.81 -23.18 94.53 -22.54 L 94.53 -22.54 Q 94.44 -22.31 93.79 -20.88 L 93.79 -20.88 Q 93.33 -19.96 93.33 -19.83 L 93.33 -19.83 Q 93.33 -19.69 93.15 -19.25 Q 92.97 -18.81 92.83 -18.35 L 92.83 -18.35 Q 92.46 -17.62 91.65 -15.75 Q 90.85 -13.89 90.85 -13.71 L 90.85 -13.71 Q 90.85 -13.2 90.62 -12.97 L 90.62 -12.97 Q 90.48 -12.97 90.44 -12.77 Q 90.39 -12.56 90.39 -12.47 L 90.39 -12.47 Q 90.39 -12.01 89.65 -10.03 L 89.65 -10.03 L 89.24 -8.69 Q 88.37 -5.7 88.02 -4.32 Q 87.68 -2.94 87.68 -1.98 L 87.68 -1.98 Q 87.68 -0.83 87.61 -0.51 Q 87.54 -0.18 87.22 0 L 87.22 0 Z M 110.77 -0.32 Q 110.03 -0.46 109.27 -1.31 Q 108.51 -2.16 108.28 -2.9 L 108.28 -2.9 Q 108.28 -2.99 108.19 -3.1 Q 108.1 -3.22 108.05 -3.27 L 108.05 -3.27 Q 107.87 -3.4 107.87 -4.78 L 107.87 -4.78 Q 107.87 -5.89 107.98 -7.08 Q 108.1 -8.28 108.28 -9.02 L 108.28 -9.02 L 109.11 -11.45 L 109.76 -13.29 L 111 -15.96 L 109.16 -16.47 Q 108.84 -16.51 108.63 -16.79 Q 108.42 -17.07 108.42 -17.3 L 108.42 -17.3 Q 108.42 -17.66 108.81 -18.19 Q 109.2 -18.72 109.43 -18.72 L 109.43 -18.72 Q 109.57 -18.68 110.17 -18.68 L 110.17 -18.68 Q 111.55 -18.68 112.24 -18.81 L 112.24 -18.81 Q 112.7 -19 112.88 -19.55 L 112.88 -19.55 Q 113.07 -19.92 113.32 -20.47 Q 113.57 -21.02 113.8 -21.48 L 113.8 -21.48 Q 113.94 -21.76 114.24 -22.33 Q 114.54 -22.91 115 -23.64 L 115 -23.64 Q 115.09 -23.78 115.41 -24.31 Q 115.74 -24.84 116.2 -25.21 L 116.2 -25.21 Q 116.52 -25.53 116.98 -25.53 L 116.98 -25.53 Q 117.44 -25.53 118.17 -24.93 L 118.17 -24.93 Q 118.27 -24.79 118.43 -24.56 Q 118.59 -24.33 118.59 -24.15 L 118.59 -24.15 Q 118.59 -23.97 118.22 -23.37 L 118.22 -23.37 Q 117.94 -22.82 117.69 -22.38 Q 117.44 -21.94 117.25 -21.62 L 117.25 -21.62 Q 116.7 -20.7 116.47 -20.24 L 116.47 -20.24 Q 116.01 -19.64 116.01 -19.32 L 116.01 -19.32 Q 116.01 -19 116.61 -19 L 116.61 -19 Q 117.25 -19 118.77 -19.27 L 118.77 -19.27 Q 119.42 -19.37 119.65 -19.37 L 119.65 -19.37 Q 121.26 -19.37 121.39 -18.03 L 121.39 -18.03 Q 121.44 -17.76 121.44 -17.39 L 121.44 -17.39 Q 121.44 -16.74 121 -16.61 Q 120.57 -16.47 119.05 -16.47 L 119.05 -16.47 Q 117.58 -16.24 116.01 -16.24 L 116.01 -16.24 Q 115.74 -16.24 115.39 -16.21 Q 115.05 -16.19 114.68 -16.1 L 114.68 -16.1 Q 114.31 -16.01 114.15 -15.82 Q 113.99 -15.64 113.8 -15.23 L 113.8 -15.23 Q 113.67 -15.09 113.16 -14.17 L 113.16 -14.17 Q 112.52 -12.83 112.33 -12.56 L 112.33 -12.56 Q 111.09 -8.88 110.49 -5.01 L 110.49 -5.01 Q 110.4 -4.28 110.4 -4.09 L 110.4 -4.09 Q 110.4 -3.4 110.86 -3.13 Q 111.32 -2.85 112.42 -2.85 L 112.42 -2.85 Q 113.99 -2.85 115.14 -3.17 L 115.14 -3.17 Q 116.52 -3.77 117.21 -4.19 L 117.21 -4.19 Q 117.62 -4.42 117.97 -4.62 Q 118.31 -4.83 118.45 -4.92 L 118.45 -4.92 Q 118.59 -5.2 118.77 -5.2 L 118.77 -5.2 Q 119.14 -5.2 119.42 -4.46 L 119.42 -4.46 Q 119.42 -3.73 119.09 -3.17 Q 118.77 -2.62 117.48 -1.89 L 117.48 -1.89 Q 114.82 -0.18 112.15 -0.18 L 112.15 -0.18 Q 111.41 -0.18 110.77 -0.32 L 110.77 -0.32 Z M 126.73 -0.69 Q 126.18 -0.69 125.86 -0.87 Q 125.53 -1.06 124.94 -1.56 L 124.94 -1.56 Q 123.42 -3.17 123.42 -4.51 L 123.42 -4.51 Q 123.42 -4.83 123.46 -4.97 L 123.46 -4.97 Q 123.6 -5.29 123.58 -5.61 Q 123.56 -5.93 123.56 -6.03 L 123.56 -6.03 Q 123.37 -6.21 123.37 -6.28 Q 123.37 -6.35 123.46 -6.42 Q 123.56 -6.49 123.6 -6.58 L 123.6 -6.58 Q 123.88 -6.58 123.79 -7.08 L 123.79 -7.08 Q 123.69 -7.45 124.15 -8.72 Q 124.61 -9.98 125.3 -11.04 L 125.3 -11.04 Q 125.81 -11.87 126.8 -13.11 Q 127.79 -14.35 128.57 -15 L 128.57 -15 Q 129.67 -15.96 130.55 -16.42 Q 131.42 -16.88 132.48 -17.11 L 132.48 -17.11 Q 133.4 -17.34 133.72 -17.34 L 133.72 -17.34 Q 134.04 -17.34 134.3 -17.18 Q 134.55 -17.02 134.96 -16.61 L 134.96 -16.61 Q 136.21 -16.05 136.69 -15.2 Q 137.17 -14.35 137.17 -12.56 L 137.17 -12.56 Q 137.17 -9.57 134.73 -6.07 L 134.73 -6.07 Q 133.68 -4.55 132.76 -3.75 Q 131.84 -2.94 130.32 -2.02 L 130.32 -2.02 Q 129.35 -1.33 128.55 -1.03 Q 127.74 -0.74 126.73 -0.69 L 126.73 -0.69 Z M 131.15 -5.57 Q 132.25 -6.81 132.92 -7.91 Q 133.58 -9.02 134.18 -10.72 L 134.18 -10.72 Q 134.41 -11.5 134.41 -12.6 L 134.41 -12.6 Q 134.41 -13.98 134.04 -14.17 L 134.04 -14.17 Q 133.58 -14.4 133.12 -14.4 L 133.12 -14.4 Q 132.11 -14.4 131.01 -13.48 L 131.01 -13.48 Q 129.67 -12.33 128.62 -10.65 Q 127.56 -8.97 126.45 -6.49 L 126.45 -6.49 Q 125.99 -5.52 125.99 -4.6 L 125.99 -4.6 Q 125.99 -3.91 126.34 -3.5 Q 126.68 -3.08 127.28 -3.08 L 127.28 -3.08 Q 128.8 -3.08 131.15 -5.57 L 131.15 -5.57 Z M 159.02 2.58 Q 157.6 2.07 156.7 1.43 Q 155.8 0.78 155.2 -0.69 L 155.2 -0.69 Q 154.47 -2.76 154.47 -5.57 L 154.47 -5.57 Q 154.47 -8.28 154.79 -10.19 Q 155.11 -12.1 155.89 -14.08 L 155.89 -14.08 L 156.31 -15.04 Q 157.04 -16.93 157.37 -17.53 L 157.37 -17.53 Q 158.15 -19.32 160.13 -22.17 L 160.13 -22.17 Q 161.87 -24.84 162.89 -26.06 Q 163.9 -27.28 164.84 -28.01 Q 165.78 -28.75 168.31 -30.5 L 168.31 -30.5 Q 169.37 -31.28 170.75 -31.28 L 170.75 -31.28 Q 171.9 -31.28 172.89 -30.7 Q 173.88 -30.13 174.39 -29.07 L 174.39 -29.07 Q 174.89 -28.2 174.89 -26.73 L 174.89 -26.73 Q 174.89 -24.66 173.97 -22.4 Q 173.05 -20.15 171.63 -18.86 L 171.63 -18.86 Q 171.17 -18.45 170.75 -18.45 L 170.75 -18.45 Q 170.25 -18.45 169.42 -19.18 L 169.42 -19.18 Q 169 -19.96 168.96 -20.1 Q 168.91 -20.24 169.14 -20.29 L 169.14 -20.29 Q 169.56 -20.79 170.36 -22.24 Q 171.17 -23.69 171.44 -24.52 L 171.44 -24.52 Q 171.53 -24.79 171.63 -25.44 L 171.63 -25.44 Q 171.99 -27.05 171.99 -27.6 L 171.99 -27.6 Q 171.99 -28.15 171.67 -28.47 L 171.67 -28.47 Q 171.53 -28.61 171.3 -28.61 L 171.3 -28.61 Q 170.94 -28.61 170.02 -28.15 L 170.02 -28.15 Q 168.91 -27.69 167.21 -26.08 Q 165.51 -24.47 164.13 -22.59 L 164.13 -22.59 Q 162.01 -19.83 160.88 -18.03 Q 159.76 -16.24 159.16 -14.4 L 159.16 -14.4 L 158.65 -13.2 Q 158.7 -13.02 158.52 -12.28 Q 158.33 -11.55 158.1 -11.09 L 158.1 -11.09 Q 157.46 -8.42 157.46 -5.8 L 157.46 -5.8 Q 157.46 -3.82 157.8 -2.3 Q 158.15 -0.78 158.79 -0.23 L 158.79 -0.23 Q 159.16 0.09 159.9 0.09 L 159.9 0.09 Q 160.82 0.09 162.17 -0.37 Q 163.53 -0.83 165.51 -1.7 L 165.51 -1.7 Q 166.57 -2.12 167.51 -2.67 Q 168.45 -3.22 168.91 -3.68 L 168.91 -3.68 Q 170.11 -4.55 170.84 -4.55 L 170.84 -4.55 Q 171.35 -4.74 171.53 -4.74 L 171.53 -4.74 Q 171.63 -4.74 171.65 -4.62 Q 171.67 -4.51 171.67 -4.32 L 171.67 -4.32 Q 171.67 -3.68 170.98 -2.92 Q 170.29 -2.16 169.14 -1.47 L 169.14 -1.47 Q 168.22 -0.55 166.93 -0.05 L 166.93 -0.05 Q 165.46 1.01 163.51 1.84 Q 161.55 2.67 159.94 2.67 L 159.94 2.67 Q 159.57 2.67 159.02 2.58 L 159.02 2.58 Z M 177.01 -1.66 Q 176.87 -1.93 176.57 -2.23 Q 176.27 -2.53 176.27 -2.62 L 176.27 -2.62 Q 176.27 -3.13 176.04 -3.4 L 176.04 -3.4 Q 175.95 -3.5 175.95 -3.82 L 175.95 -3.82 Q 175.95 -4.55 176.66 -6.33 Q 177.38 -8.1 178.53 -10.17 L 178.53 -10.17 Q 178.8 -10.44 179.24 -11.13 Q 179.68 -11.82 179.81 -11.91 L 179.81 -11.91 Q 179.81 -12.1 179.95 -12.26 Q 180.09 -12.42 180.27 -12.42 L 180.27 -12.42 L 180.27 -12.7 Q 180.27 -13.11 181.79 -14.7 Q 183.31 -16.28 184.28 -16.88 L 184.28 -16.88 Q 185.43 -17.66 186.62 -17.66 L 186.62 -17.66 Q 187.45 -17.66 188.05 -17.2 L 188.05 -17.2 Q 188.28 -16.93 190.16 -15.23 L 190.16 -15.23 L 191.87 -13.71 L 191.04 -11.41 Q 190.62 -10.17 190.62 -9.15 L 190.62 -9.15 Q 190.62 -7.41 191.64 -5.8 L 191.64 -5.8 Q 191.87 -5.29 192.56 -4.83 Q 193.25 -4.37 193.94 -4.28 L 193.94 -4.28 Q 194.95 -4.09 194.95 -3.27 L 194.95 -3.27 Q 194.95 -2.35 194.12 -2.16 L 194.12 -2.16 Q 193.94 -2.12 193.57 -2.12 L 193.57 -2.12 Q 190.85 -2.12 188.88 -5.93 L 188.88 -5.93 Q 188.69 -6.21 188.39 -6.95 Q 188.09 -7.68 188.05 -7.96 L 188.05 -7.96 Q 187.77 -7.59 187.36 -7.08 Q 186.94 -6.58 186.58 -6.21 L 186.58 -6.21 Q 181.56 -1.2 178.66 -1.2 L 178.66 -1.2 Q 177.74 -1.2 177.01 -1.66 L 177.01 -1.66 Z M 178.66 -4.23 Q 178.66 -4 179.15 -4.09 Q 179.63 -4.19 180.34 -4.55 Q 181.06 -4.92 181.79 -5.52 L 181.79 -5.52 Q 185.75 -8.92 187.5 -11.45 L 187.5 -11.45 L 188.51 -13.11 Q 188.05 -14.08 187.54 -14.51 Q 187.04 -14.95 186.62 -14.95 L 186.62 -14.95 Q 185.66 -14.95 183.59 -12.54 Q 181.52 -10.12 179.81 -6.85 L 179.81 -6.85 Q 179.4 -6.07 179.08 -5.27 Q 178.76 -4.46 178.66 -4.23 L 178.66 -4.23 Z M 198.86 -1.61 Q 198.49 -1.89 198.35 -2.12 Q 198.21 -2.35 198.21 -2.81 L 198.21 -2.81 Q 198.21 -3.22 198.26 -3.5 L 198.26 -3.5 Q 198.4 -5.06 198.95 -7.13 L 198.95 -7.13 L 199.18 -8.05 Q 199.32 -9.2 200.79 -12.88 Q 202.26 -16.56 203.18 -17.89 L 203.18 -17.89 Q 203.55 -18.12 203.96 -18.12 L 203.96 -18.12 Q 204.56 -18.12 204.98 -17.71 L 204.98 -17.71 Q 205.25 -17.53 205.25 -17.02 L 205.25 -17.02 Q 205.25 -16.56 204.91 -15.66 Q 204.56 -14.77 203.73 -13.02 L 203.73 -13.02 Q 203.55 -12.65 203.11 -11.64 Q 202.68 -10.63 202.68 -10.44 L 202.68 -10.44 Q 202.68 -10.35 202.72 -10.35 L 202.72 -10.35 Q 202.81 -10.35 202.91 -10.42 Q 203 -10.49 203.09 -10.53 L 203.09 -10.53 Q 203.6 -11.41 205.55 -12.93 Q 207.51 -14.44 208.24 -14.81 L 208.24 -14.81 Q 208.56 -15 209.07 -15.18 Q 209.58 -15.36 209.76 -15.46 L 209.76 -15.46 Q 210.5 -15.82 211.51 -15.82 L 211.51 -15.82 Q 212.15 -15.82 212.63 -15.62 Q 213.12 -15.41 213.3 -15 L 213.3 -15 Q 213.35 -14.67 213.55 -14.49 Q 213.76 -14.31 213.85 -14.26 L 213.85 -14.26 Q 213.99 -14.26 214.04 -14.14 Q 214.08 -14.03 214.08 -13.98 L 214.08 -13.98 Q 214.08 -13.66 213.72 -13.59 Q 213.35 -13.52 212.38 -13.48 L 212.38 -13.48 Q 211.88 -13.43 211.32 -13.25 Q 210.77 -13.06 210.22 -12.79 L 210.22 -12.79 Q 207.64 -11.32 206.38 -10.49 Q 205.11 -9.66 203.83 -8.23 L 203.83 -8.23 Q 203.32 -7.68 202.49 -6.26 L 202.49 -6.26 Q 202.17 -5.93 201.82 -4.58 Q 201.48 -3.22 201.48 -2.9 L 201.48 -2.9 Q 201.43 -2.76 201.3 -2.37 Q 201.16 -1.98 200.88 -1.61 L 200.88 -1.61 Q 200.33 -0.87 199.96 -0.87 L 199.96 -0.87 Q 199.55 -0.87 198.86 -1.61 L 198.86 -1.61 Z M 223.84 -1.61 Q 222.69 -0.6 221.08 -0.6 L 221.08 -0.6 Q 219.93 -0.6 218.89 -1.15 Q 217.86 -1.7 217.17 -2.67 L 217.17 -2.67 Q 216.57 -3.4 216.29 -4.32 Q 216.02 -5.24 216.02 -6.58 L 216.02 -6.58 Q 216.02 -7.04 216.11 -8.42 L 216.11 -8.42 Q 216.25 -10.12 217.23 -11.96 Q 218.22 -13.8 219.7 -15.25 Q 221.17 -16.7 222.59 -17.25 L 222.59 -17.25 Q 223.33 -17.71 223.93 -17.71 L 223.93 -17.71 Q 224.25 -17.71 224.57 -17.66 Q 224.89 -17.62 225.26 -17.57 L 225.26 -17.57 Q 226.27 -17.43 226.8 -17.18 Q 227.33 -16.93 227.7 -16.42 L 227.7 -16.42 Q 228.85 -15.27 228.85 -13.75 L 228.85 -13.75 Q 228.67 -12.65 227.42 -11.22 Q 226.18 -9.8 224.43 -8.92 L 224.43 -8.92 Q 223.61 -8.65 222.55 -8.65 L 222.55 -8.65 Q 221.12 -8.65 220.25 -9.25 L 220.25 -9.25 Q 219.83 -9.38 219.6 -9.38 L 219.6 -9.38 Q 219.19 -9.38 218.98 -8.83 Q 218.78 -8.28 218.59 -6.81 L 218.59 -6.81 Q 218.55 -6.49 218.55 -5.89 L 218.55 -5.89 Q 218.55 -3.54 220.11 -3.31 L 220.11 -3.31 Q 221.17 -3.08 221.63 -3.08 L 221.63 -3.08 Q 222.18 -3.08 222.87 -3.45 L 222.87 -3.45 L 223.74 -3.96 Q 224.02 -4.09 224.25 -4.32 Q 224.48 -4.55 224.66 -4.74 L 224.66 -4.74 Q 224.76 -4.83 224.94 -5.04 Q 225.12 -5.24 225.28 -5.31 Q 225.45 -5.38 225.58 -5.38 L 225.58 -5.38 Q 225.77 -5.38 226 -5.17 Q 226.23 -4.97 226.37 -4.88 L 226.37 -4.88 Q 226.78 -4.88 226.55 -4.3 Q 226.32 -3.73 225.56 -2.97 Q 224.8 -2.21 223.84 -1.61 L 223.84 -1.61 Z M 223.79 -11.36 Q 224.57 -11.68 225.38 -12.51 Q 226.18 -13.34 226.18 -13.89 L 226.18 -13.89 Q 226.18 -14.44 225.77 -14.81 Q 225.35 -15.18 224.62 -15.18 L 224.62 -15.18 Q 224.07 -15.18 223.79 -15.09 L 223.79 -15.09 Q 223.15 -14.9 222.27 -14.1 Q 221.4 -13.29 220.75 -12.47 Q 220.11 -11.64 220.25 -11.5 L 220.25 -11.5 Q 220.48 -11.09 222.04 -11.09 L 222.04 -11.09 Q 223.1 -11.09 223.79 -11.36 L 223.79 -11.36 Z M 229.68 3.63 Q 229.17 3.63 229.08 3.59 Q 228.99 3.54 228.8 3.17 L 228.8 3.17 Q 228.8 2.9 228.99 2.65 Q 229.17 2.39 229.45 2.07 L 229.45 2.07 Q 230.23 1.29 231.15 0.18 Q 232.07 -0.92 232.39 -1.52 L 232.39 -1.52 Q 232.71 -2.53 233.08 -4.23 L 233.08 -4.23 Q 233.08 -5.15 233.31 -5.38 L 233.31 -5.38 Q 233.59 -5.66 233.82 -5.66 L 233.82 -5.66 Q 234.37 -5.66 234.65 -3.59 L 234.65 -3.59 Q 234.74 -2.94 234.74 -2.62 L 234.74 -2.62 Q 234.74 -1.56 233.96 0.28 L 233.96 0.28 Q 233.77 0.74 232.83 1.86 Q 231.89 2.99 231.7 2.99 L 231.7 2.99 Q 231.47 2.99 231.06 3.4 L 231.06 3.4 Q 230.92 3.54 230.53 3.59 Q 230.14 3.63 229.68 3.63 L 229.68 3.63 Z M 258.98 2.62 Q 257.51 1.7 256.79 1.01 Q 256.08 0.32 256.08 -0.28 L 256.08 -0.28 Q 256.08 -0.87 256.86 -1.33 L 256.86 -1.33 Q 257.09 -1.47 257.67 -1.08 Q 258.24 -0.69 258.8 -0.14 L 258.8 -0.14 Q 259.99 0.97 261.92 0.97 L 261.92 0.97 Q 262.75 0.97 264.13 0.64 L 264.13 0.64 Q 266.02 0.09 267.47 -0.97 Q 268.92 -2.02 270.25 -3.68 L 270.25 -3.68 Q 271.08 -4.78 271.49 -6.12 Q 271.91 -7.45 271.91 -8.65 L 271.91 -8.65 Q 271.91 -10.12 271.35 -10.81 L 271.35 -10.81 Q 269.51 -13.29 266.11 -13.29 L 266.11 -13.29 Q 264.64 -13.29 263.35 -12.93 L 263.35 -12.93 L 260.68 -12.37 Q 260.59 -12.33 260.27 -12.26 Q 259.95 -12.19 259.26 -10.26 Q 258.57 -8.33 257.46 -5.2 L 257.46 -5.2 Q 256.5 -2.39 255.94 -1.26 Q 255.39 -0.14 254.93 -0.14 L 254.93 -0.14 Q 254.47 -0.14 253.83 -1.15 L 253.83 -1.15 Q 253.32 -1.98 253.32 -2.58 L 253.32 -2.58 Q 253.32 -3.17 253.74 -3.86 L 253.74 -3.86 Q 253.97 -4.28 254.13 -4.69 Q 254.29 -5.11 254.47 -5.84 L 254.47 -5.84 Q 255.07 -7.64 257.94 -14.77 Q 260.82 -21.9 262.43 -25.53 L 262.43 -25.53 Q 263.58 -28.15 263.12 -28.29 L 263.12 -28.29 Q 263.12 -28.43 262.98 -28.7 Q 262.84 -28.98 262.89 -29.12 L 262.89 -29.12 Q 262.89 -29.39 264.18 -29.95 Q 265.47 -30.5 266.06 -30.41 L 266.06 -30.41 L 266.34 -30.41 Q 266.94 -30.41 266.94 -30.64 L 266.94 -30.64 Q 267.03 -30.64 267.79 -30.73 Q 268.55 -30.82 269.42 -30.73 L 269.42 -30.73 Q 272.5 -30.45 274.21 -28.93 Q 275.91 -27.42 275.86 -24.89 L 275.86 -24.89 Q 275.82 -23.74 274.25 -21.5 Q 272.69 -19.27 271.12 -17.85 L 271.12 -17.85 Q 270.39 -17.2 269.44 -16.49 Q 268.5 -15.78 268.23 -15.59 L 268.23 -15.59 L 269.38 -15.18 Q 271.63 -14.35 272.94 -13.13 Q 274.25 -11.91 274.76 -9.89 L 274.76 -9.89 Q 274.85 -9.43 274.85 -9.06 L 274.85 -9.06 Q 274.85 -8.05 274.5 -6.76 Q 274.16 -5.47 273.75 -4.51 L 273.75 -4.51 Q 273.47 -4.23 273.29 -3.91 Q 273.1 -3.59 273.06 -3.5 L 273.06 -3.5 Q 273.01 -3.31 272.23 -2.09 Q 271.45 -0.87 270.85 -0.14 L 270.85 -0.14 Q 268.55 1.84 266.75 2.48 L 266.75 2.48 Q 264.82 3.36 262.38 3.36 L 262.38 3.36 Q 260.13 3.36 258.98 2.62 L 258.98 2.62 Z M 261.23 -15.09 Q 261.74 -15.18 263.28 -15.48 Q 264.82 -15.78 265.42 -16.01 L 265.42 -16.01 Q 265.51 -16.05 266 -16.31 Q 266.48 -16.56 266.98 -17.07 L 266.98 -17.07 Q 268.09 -18.08 269.7 -20.08 Q 271.31 -22.08 272.04 -23.46 L 272.04 -23.46 Q 273.19 -25.35 273.19 -26.22 L 273.19 -26.22 Q 273.19 -26.82 272.69 -27.32 L 272.69 -27.32 Q 272.09 -28.06 269.84 -28.06 L 269.84 -28.06 Q 268.36 -28.06 267.31 -27.78 L 267.31 -27.78 Q 266.66 -27.6 266.36 -27.35 Q 266.06 -27.09 266.06 -26.59 L 266.06 -26.59 Q 266.06 -25.9 265.33 -25.16 L 265.33 -25.16 Q 265.28 -24.89 265.12 -24.63 Q 264.96 -24.38 264.91 -24.33 L 264.91 -24.33 Q 264.91 -24.2 264.36 -22.95 L 264.36 -22.95 Q 263.63 -21.53 262.98 -19.73 L 262.98 -19.73 Q 261.23 -15.59 261.23 -15.09 L 261.23 -15.09 Z M 284.69 -20.15 Q 284.37 -20.47 284.14 -21.25 Q 283.91 -22.03 284.14 -22.03 L 284.14 -22.03 Q 284.51 -22.08 284.99 -22.84 Q 285.48 -23.6 285.43 -24.1 L 285.43 -24.1 Q 285.43 -24.29 285.57 -24.45 Q 285.71 -24.61 285.89 -24.66 L 285.89 -24.66 Q 286.26 -24.89 286.53 -24.89 L 286.53 -24.89 Q 287.32 -24.89 287.96 -23.78 L 287.96 -23.78 Q 288.24 -23.18 288.24 -22.72 L 288.24 -22.72 Q 288.24 -22.31 288.01 -21.87 Q 287.78 -21.44 287.18 -20.75 L 287.18 -20.75 Q 286.4 -19.69 285.71 -19.69 L 285.71 -19.69 Q 285.25 -19.69 284.69 -20.15 L 284.69 -20.15 Z M 280.23 -1.47 Q 279.59 -2.12 279.59 -3.31 L 279.59 -3.31 Q 279.59 -3.96 279.82 -4.42 L 279.82 -4.42 Q 279.82 -4.65 279.91 -4.97 Q 280 -5.29 280 -5.38 L 280 -5.38 Q 279.96 -5.66 280.37 -6.9 L 280.37 -6.9 Q 281.2 -8.74 282.58 -13.39 L 282.58 -13.39 Q 282.58 -13.62 282.76 -13.78 Q 282.95 -13.94 283.31 -13.98 L 283.31 -13.98 Q 283.68 -14.08 283.82 -14.08 L 283.82 -14.08 Q 284.1 -14.08 284.3 -13.87 Q 284.51 -13.66 284.88 -13.11 L 284.88 -13.11 Q 285.15 -12.83 285.15 -12.28 L 285.15 -12.28 Q 285.15 -11.41 284.56 -10.17 L 284.56 -10.17 Q 283.96 -8.83 283.77 -7.87 L 283.77 -7.87 Q 283.22 -6.62 282.9 -5.57 L 282.9 -5.57 Q 282.81 -5.29 282.62 -4.46 Q 282.44 -3.63 282.12 -3.13 L 282.12 -3.13 Q 281.84 -1.84 281.61 -1.33 Q 281.38 -0.83 281.11 -0.83 L 281.11 -0.83 Q 280.78 -0.83 280.23 -1.47 L 280.23 -1.47 Z M 302.68 -13.89 Q 302.96 -13.34 302.96 -12.83 L 302.96 -12.83 Q 302.96 -12.14 302.4 -11.45 L 302.4 -11.45 Q 302.27 -11.22 301.9 -10.74 Q 301.53 -10.26 301.25 -9.75 Q 300.98 -9.25 300.84 -8.6 L 300.84 -8.6 Q 300.66 -7.54 299.74 -4.09 L 299.74 -4.09 L 299.23 -2.3 L 298.49 0.55 Q 296.42 7.68 294.35 8.79 L 294.35 8.79 Q 293.76 9.02 293.2 9.02 L 293.2 9.02 Q 292.19 9.02 291.11 8.35 Q 290.03 7.68 289.25 6.53 L 289.25 6.53 Q 288.79 5.89 288.35 4.49 Q 287.91 3.08 288.19 2.9 L 288.19 2.9 Q 288.28 2.81 288.51 2.81 L 288.51 2.81 Q 288.83 2.81 289.2 3.01 Q 289.57 3.22 289.66 3.5 L 289.66 3.5 Q 289.85 4 290.44 4.83 Q 291.04 5.66 291.32 5.7 L 291.32 5.7 Q 292.05 6.07 292.56 6.07 L 292.56 6.07 Q 292.97 6.07 293.34 5.8 L 293.34 5.8 Q 294.08 5.2 294.61 4.25 Q 295.14 3.31 295.78 1.24 L 295.78 1.24 L 296.15 -0.09 Q 297.25 -4.14 297.76 -5.34 L 297.76 -5.34 Q 297.99 -6.07 298.22 -6.49 L 298.22 -6.49 L 297.39 -5.75 Q 296.84 -5.24 296.24 -4.78 Q 295.64 -4.32 295 -4.05 L 295 -4.05 Q 294.68 -3.63 293.39 -3.63 L 293.39 -3.63 Q 292.47 -3.63 291.55 -3.91 L 291.55 -3.91 Q 290.58 -4.42 290.35 -4.69 Q 290.12 -4.97 289.71 -5.98 L 289.71 -5.98 Q 289.52 -6.35 289.52 -7.13 L 289.52 -7.13 Q 289.52 -9.11 290.44 -11.36 L 290.44 -11.36 Q 291.32 -13.16 293.2 -15.18 Q 295.09 -17.2 296.47 -17.62 L 296.47 -17.62 Q 297.02 -17.89 297.48 -17.89 L 297.48 -17.89 Q 297.99 -17.89 298.54 -17.71 L 298.54 -17.71 Q 299.28 -17.62 299.69 -17.39 Q 300.1 -17.16 301.07 -16.33 L 301.07 -16.33 Q 302.17 -15.23 302.68 -13.89 L 302.68 -13.89 Z M 297.62 -9.34 Q 298.4 -10.4 298.72 -11.62 Q 299.05 -12.83 298.95 -14.03 L 298.95 -14.03 Q 298.91 -14.67 298.77 -14.93 Q 298.63 -15.18 298.26 -15.18 L 298.26 -15.18 Q 297.39 -15.18 296.24 -14.35 Q 295.09 -13.52 294.03 -12.19 L 294.03 -12.19 Q 293.34 -11.27 292.88 -9.98 L 292.88 -9.98 Q 292.33 -8.42 292.33 -7.08 L 292.33 -7.08 Q 292.33 -6.07 292.7 -5.93 L 292.7 -5.93 Q 294.12 -5.98 295.3 -6.76 Q 296.47 -7.54 297.62 -9.34 L 297.62 -9.34 Z M 324.35 -20.15 Q 324.02 -20.47 323.79 -21.25 Q 323.56 -22.03 323.79 -22.03 L 323.79 -22.03 Q 324.16 -22.08 324.65 -22.84 Q 325.13 -23.6 325.08 -24.1 L 325.08 -24.1 Q 325.08 -24.29 325.22 -24.45 Q 325.36 -24.61 325.54 -24.66 L 325.54 -24.66 Q 325.91 -24.89 326.19 -24.89 L 326.19 -24.89 Q 326.97 -24.89 327.61 -23.78 L 327.61 -23.78 Q 327.89 -23.18 327.89 -22.72 L 327.89 -22.72 Q 327.89 -22.31 327.66 -21.87 Q 327.43 -21.44 326.83 -20.75 L 326.83 -20.75 Q 326.05 -19.69 325.36 -19.69 L 325.36 -19.69 Q 324.9 -19.69 324.35 -20.15 L 324.35 -20.15 Z M 319.88 -1.47 Q 319.24 -2.12 319.24 -3.31 L 319.24 -3.31 Q 319.24 -3.96 319.47 -4.42 L 319.47 -4.42 Q 319.47 -4.65 319.56 -4.97 Q 319.65 -5.29 319.65 -5.38 L 319.65 -5.38 Q 319.61 -5.66 320.02 -6.9 L 320.02 -6.9 Q 320.85 -8.74 322.23 -13.39 L 322.23 -13.39 Q 322.23 -13.62 322.41 -13.78 Q 322.6 -13.94 322.97 -13.98 L 322.97 -13.98 Q 323.33 -14.08 323.47 -14.08 L 323.47 -14.08 Q 323.75 -14.08 323.96 -13.87 Q 324.16 -13.66 324.53 -13.11 L 324.53 -13.11 Q 324.81 -12.83 324.81 -12.28 L 324.81 -12.28 Q 324.81 -11.41 324.21 -10.17 L 324.21 -10.17 Q 323.61 -8.83 323.43 -7.87 L 323.43 -7.87 Q 322.87 -6.62 322.55 -5.57 L 322.55 -5.57 Q 322.46 -5.29 322.28 -4.46 Q 322.09 -3.63 321.77 -3.13 L 321.77 -3.13 Q 321.49 -1.84 321.26 -1.33 Q 321.03 -0.83 320.76 -0.83 L 320.76 -0.83 Q 320.44 -0.83 319.88 -1.47 L 319.88 -1.47 Z M 345.46 -2.12 Q 344.54 -2.12 343.94 -2.51 Q 343.34 -2.9 342.93 -3.82 L 342.93 -3.82 Q 342.52 -5.29 342.52 -6.76 L 342.52 -6.76 Q 342.52 -7.45 342.65 -7.73 L 342.65 -7.73 Q 342.84 -7.91 342.81 -8.53 Q 342.79 -9.15 342.79 -9.43 L 342.79 -9.43 Q 342.75 -10.49 342.15 -10.49 L 342.15 -10.49 Q 341.73 -10.49 341.23 -10.17 L 341.23 -10.17 Q 338.65 -8.56 336.9 -7.41 Q 335.16 -6.26 333.55 -4.83 L 333.55 -4.83 Q 332.9 -4.09 332.58 -3.54 Q 332.26 -2.99 332.12 -2.78 Q 331.98 -2.58 331.75 -2.58 L 331.75 -2.58 Q 331.48 -2.48 331.38 -2.48 L 331.38 -2.48 Q 331.15 -2.48 330.83 -2.74 Q 330.51 -2.99 330.42 -3.08 L 330.42 -3.08 Q 330.23 -3.27 329.82 -3.7 Q 329.41 -4.14 329.36 -4.32 L 329.36 -4.32 Q 329.36 -4.69 329.66 -6.03 Q 329.96 -7.36 330.14 -7.73 L 330.14 -7.73 Q 330.28 -7.73 330.56 -8.3 Q 330.83 -8.88 331.06 -9.2 L 331.06 -9.2 Q 331.2 -9.89 332.26 -12.37 L 332.26 -12.37 Q 332.9 -13.48 333.16 -14.21 Q 333.41 -14.95 333.5 -16.05 L 333.5 -16.05 L 333.5 -16.15 Q 333.5 -16.33 333.64 -16.45 Q 333.78 -16.56 333.91 -16.56 L 333.91 -16.56 Q 334.24 -16.79 334.51 -16.79 L 334.51 -16.79 Q 335.11 -16.79 335.71 -16.05 L 335.71 -16.05 Q 336.4 -15.18 336.4 -14.21 L 336.4 -14.21 Q 336.4 -13.02 334.88 -10.44 L 334.88 -10.44 Q 334.74 -10.12 334.49 -9.52 Q 334.24 -8.92 334.24 -8.69 L 334.24 -8.69 L 336.81 -10.44 Q 337.18 -10.86 338.79 -11.91 Q 340.4 -12.97 341.04 -13.11 L 341.04 -13.11 Q 342.15 -13.62 342.42 -13.62 L 342.42 -13.62 Q 342.98 -13.62 343.92 -12.79 Q 344.86 -11.96 345.05 -11.41 L 345.05 -11.41 Q 345.05 -10.9 345.14 -10.67 L 345.14 -10.67 Q 345.37 -9.75 345.37 -8.51 L 345.37 -8.51 Q 345.37 -7.68 345.25 -7.01 Q 345.14 -6.35 344.95 -6.26 L 344.95 -6.26 Q 344.95 -6.21 345 -6.12 Q 345.05 -6.03 345.18 -6.03 L 345.18 -6.03 L 345.18 -5.8 Q 344.82 -5.8 345.09 -5.01 Q 345.37 -4.23 345.83 -3.82 L 345.83 -3.82 Q 346.29 -3.36 346.29 -2.9 L 346.29 -2.9 Q 346.29 -2.35 345.46 -2.12 L 345.46 -2.12 Z M 369.15 4.37 Q 367.95 4.55 367.59 4.55 L 367.59 4.55 Q 366.67 4.55 365.38 4.19 L 365.38 4.19 Q 364.78 4 364.5 3.77 Q 364.23 3.54 363.88 3.1 Q 363.54 2.67 363.35 2.44 L 363.35 2.44 Q 362.53 1.29 362.53 0.41 L 362.53 0.41 Q 362.53 -0.28 363.17 -0.09 L 363.17 -0.09 Q 363.63 0.14 364.18 0.83 L 364.18 0.83 Q 364.73 1.38 365.38 1.63 Q 366.02 1.89 366.94 1.89 L 366.94 1.89 Q 367.26 1.89 368.18 1.79 L 368.18 1.79 Q 369.29 1.61 370.76 1.1 Q 372.23 0.6 372.92 0.05 L 372.92 0.05 Q 375.13 -1.47 376.53 -2.39 Q 377.94 -3.31 378.3 -3.54 L 378.3 -3.54 Q 378.4 -3.77 379.27 -4.09 L 379.27 -4.09 L 380.51 -5.29 Q 381.71 -6.58 382.08 -6.85 L 382.08 -6.85 Q 382.12 -7.18 382.24 -7.52 Q 382.35 -7.87 382.35 -8.05 L 382.35 -8.05 Q 382.9 -8.65 384.01 -10.92 Q 385.11 -13.2 385.53 -14.86 L 385.53 -14.86 Q 385.94 -17.02 385.94 -18.68 L 385.94 -18.68 Q 385.94 -21.48 384.95 -23.39 Q 383.96 -25.3 382.08 -26.91 L 382.08 -26.91 Q 381.11 -27.69 378.88 -28.63 Q 376.65 -29.58 376.28 -29.44 L 376.28 -29.44 Q 376.05 -29.39 375.04 -26.79 Q 374.03 -24.2 372.28 -19.32 L 372.28 -19.32 L 370.81 -15.23 Q 370.62 -14.49 370.39 -13.85 Q 370.16 -13.2 370.02 -12.7 L 370.02 -12.7 Q 369.43 -10.99 369.43 -10.76 L 369.43 -10.76 Q 368.92 -9.98 368.62 -8.72 Q 368.32 -7.45 367.95 -4.42 L 367.95 -4.42 Q 367.54 -2.9 367.59 -3.04 L 367.59 -3.04 Q 367.4 -2.25 367.26 -1.75 Q 367.13 -1.24 366.99 -1.29 L 366.99 -1.29 L 366.8 -1.1 Q 366.8 -0.83 366.39 -0.83 L 366.39 -0.83 Q 366.02 -0.83 365.56 -1.03 Q 365.1 -1.24 364.83 -1.52 L 364.83 -1.52 Q 364.64 -2.16 364.64 -2.44 L 364.64 -2.44 Q 364.64 -3.04 365.01 -4.28 L 365.01 -4.28 Q 365.38 -5.84 366.23 -8.67 Q 367.08 -11.5 367.68 -13.29 L 367.68 -13.29 Q 368 -14.08 368.6 -16.24 L 368.6 -16.24 Q 369.1 -17.94 369.73 -19.73 Q 370.35 -21.53 370.62 -21.99 L 370.62 -21.99 Q 370.71 -22.31 371.24 -23.83 Q 371.77 -25.35 372.51 -27.19 L 372.51 -27.19 L 372.83 -28.7 L 372.32 -28.93 Q 371.91 -28.8 371.59 -28.8 L 371.59 -28.8 Q 371.36 -28.8 371.08 -28.93 L 371.08 -28.93 Q 370.62 -28.8 369.82 -29.32 Q 369.01 -29.85 368.92 -30.31 L 368.92 -30.31 Q 368.83 -30.45 368.81 -30.73 Q 368.78 -31 368.78 -31.1 L 368.78 -31.1 Q 368.87 -31.56 370.62 -31.95 Q 372.37 -32.34 374.44 -32.34 L 374.44 -32.34 Q 375.31 -32.34 375.77 -32.29 L 375.77 -32.29 Q 376.6 -32.25 377.36 -32.02 Q 378.12 -31.79 379.22 -31.33 L 379.22 -31.33 L 380.33 -30.91 Q 381.8 -30.36 383.48 -28.98 Q 385.16 -27.6 386.47 -25.74 Q 387.78 -23.87 388.24 -21.94 L 388.24 -21.94 Q 388.38 -21.34 388.52 -20.29 Q 388.65 -19.23 388.65 -18.4 L 388.65 -18.4 Q 388.65 -17.43 388.47 -17.2 L 388.47 -17.2 Q 388.33 -17.02 388.33 -16.74 Q 388.33 -16.47 388.52 -16.42 L 388.52 -16.42 Q 388.42 -16.15 388.19 -15.41 Q 387.96 -14.67 387.69 -13.85 L 387.69 -13.85 Q 387.41 -10.95 385.11 -7.04 L 385.11 -7.04 Q 384.88 -7.04 384.74 -6.97 Q 384.61 -6.9 384.79 -6.85 L 384.79 -6.85 Q 384.79 -6.62 384.28 -5.98 L 384.28 -5.98 Q 384.15 -5.89 383.71 -5.31 Q 383.27 -4.74 383.09 -4.6 L 383.09 -4.6 Q 383.04 -4.28 382.81 -4.07 Q 382.58 -3.86 382.4 -3.86 L 382.4 -3.86 Q 382.4 -3.86 382.33 -3.84 Q 382.26 -3.82 382.26 -3.68 L 382.26 -3.68 Q 381.43 -2.48 379.25 -0.74 Q 377.06 1.01 375.36 1.75 L 375.36 1.75 Q 374.9 2.07 374.28 2.35 Q 373.66 2.62 373.43 2.71 L 373.43 2.71 Q 373.06 3.04 371.57 3.61 Q 370.07 4.19 369.15 4.37 L 369.15 4.37 Z M 399.74 -1.61 Q 398.59 -0.6 396.98 -0.6 L 396.98 -0.6 Q 395.83 -0.6 394.8 -1.15 Q 393.76 -1.7 393.07 -2.67 L 393.07 -2.67 Q 392.47 -3.4 392.2 -4.32 Q 391.92 -5.24 391.92 -6.58 L 391.92 -6.58 Q 391.92 -7.04 392.01 -8.42 L 392.01 -8.42 Q 392.15 -10.12 393.14 -11.96 Q 394.13 -13.8 395.6 -15.25 Q 397.07 -16.7 398.5 -17.25 L 398.5 -17.25 Q 399.23 -17.71 399.83 -17.71 L 399.83 -17.71 Q 400.15 -17.71 400.48 -17.66 Q 400.8 -17.62 401.17 -17.57 L 401.17 -17.57 Q 402.18 -17.43 402.71 -17.18 Q 403.24 -16.93 403.6 -16.42 L 403.6 -16.42 Q 404.75 -15.27 404.75 -13.75 L 404.75 -13.75 Q 404.57 -12.65 403.33 -11.22 Q 402.09 -9.8 400.34 -8.92 L 400.34 -8.92 Q 399.51 -8.65 398.45 -8.65 L 398.45 -8.65 Q 397.03 -8.65 396.15 -9.25 L 396.15 -9.25 Q 395.74 -9.38 395.51 -9.38 L 395.51 -9.38 Q 395.09 -9.38 394.89 -8.83 Q 394.68 -8.28 394.5 -6.81 L 394.5 -6.81 Q 394.45 -6.49 394.45 -5.89 L 394.45 -5.89 Q 394.45 -3.54 396.01 -3.31 L 396.01 -3.31 Q 397.07 -3.08 397.53 -3.08 L 397.53 -3.08 Q 398.08 -3.08 398.77 -3.45 L 398.77 -3.45 L 399.65 -3.96 Q 399.92 -4.09 400.15 -4.32 Q 400.38 -4.55 400.57 -4.74 L 400.57 -4.74 Q 400.66 -4.83 400.84 -5.04 Q 401.03 -5.24 401.19 -5.31 Q 401.35 -5.38 401.49 -5.38 L 401.49 -5.38 Q 401.67 -5.38 401.9 -5.17 Q 402.13 -4.97 402.27 -4.88 L 402.27 -4.88 Q 402.68 -4.88 402.45 -4.3 Q 402.22 -3.73 401.47 -2.97 Q 400.71 -2.21 399.74 -1.61 L 399.74 -1.61 Z M 399.69 -11.36 Q 400.48 -11.68 401.28 -12.51 Q 402.09 -13.34 402.09 -13.89 L 402.09 -13.89 Q 402.09 -14.44 401.67 -14.81 Q 401.26 -15.18 400.52 -15.18 L 400.52 -15.18 Q 399.97 -15.18 399.69 -15.09 L 399.69 -15.09 Q 399.05 -14.9 398.18 -14.1 Q 397.3 -13.29 396.66 -12.47 Q 396.01 -11.64 396.15 -11.5 L 396.15 -11.5 Q 396.38 -11.09 397.95 -11.09 L 397.95 -11.09 Q 399 -11.09 399.69 -11.36 L 399.69 -11.36 Z M 409.63 0 Q 409.49 0.05 409.17 0.05 L 409.17 0.05 Q 408.43 0.05 408.02 -0.69 Q 407.61 -1.43 407.61 -2.71 L 407.61 -2.71 Q 407.61 -3.77 407.88 -5.15 L 407.88 -5.15 Q 408.39 -6.49 408.39 -7.08 L 408.39 -7.08 Q 408.53 -7.96 409.33 -10.23 Q 410.14 -12.51 410.37 -12.97 L 410.37 -12.97 Q 410.55 -12.97 410.69 -13.27 Q 410.83 -13.57 410.83 -13.94 L 410.83 -13.94 Q 410.83 -14.35 410.99 -14.79 Q 411.15 -15.23 411.33 -15.41 L 411.33 -15.41 Q 411.33 -15.55 411.45 -15.92 Q 411.56 -16.28 411.56 -16.42 L 411.56 -16.42 Q 411.56 -16.51 411.68 -16.77 Q 411.79 -17.02 411.79 -17.16 L 411.79 -17.16 Q 412.53 -18.58 414.37 -23.57 Q 416.21 -28.57 416.21 -29.12 L 416.21 -29.12 Q 416.21 -29.85 416.94 -29.85 L 416.94 -29.85 Q 417.17 -30.08 417.68 -30.08 L 417.68 -30.08 L 418.42 -29.35 Q 418.74 -29.03 418.83 -28.68 Q 418.92 -28.34 418.92 -27.65 L 418.92 -27.65 Q 418.92 -26.96 418.74 -26.45 Q 418.55 -25.94 417.82 -24.38 L 417.82 -24.38 Q 417.68 -24.06 417.45 -23.62 Q 417.22 -23.18 416.94 -22.54 L 416.94 -22.54 Q 416.85 -22.31 416.21 -20.88 L 416.21 -20.88 Q 415.75 -19.96 415.75 -19.83 L 415.75 -19.83 Q 415.75 -19.69 415.56 -19.25 Q 415.38 -18.81 415.24 -18.35 L 415.24 -18.35 Q 414.87 -17.62 414.07 -15.75 Q 413.26 -13.89 413.26 -13.71 L 413.26 -13.71 Q 413.26 -13.2 413.03 -12.97 L 413.03 -12.97 Q 412.9 -12.97 412.85 -12.77 Q 412.8 -12.56 412.8 -12.47 L 412.8 -12.47 Q 412.8 -12.01 412.07 -10.03 L 412.07 -10.03 L 411.65 -8.69 Q 410.78 -5.7 410.44 -4.32 Q 410.09 -2.94 410.09 -1.98 L 410.09 -1.98 Q 410.09 -0.83 410.02 -0.51 Q 409.95 -0.18 409.63 0 L 409.63 0 Z M 422.19 -20.15 Q 421.87 -20.47 421.64 -21.25 Q 421.41 -22.03 421.64 -22.03 L 421.64 -22.03 Q 422 -22.08 422.49 -22.84 Q 422.97 -23.6 422.92 -24.1 L 422.92 -24.1 Q 422.92 -24.29 423.06 -24.45 Q 423.2 -24.61 423.38 -24.66 L 423.38 -24.66 Q 423.75 -24.89 424.03 -24.89 L 424.03 -24.89 Q 424.81 -24.89 425.45 -23.78 L 425.45 -23.78 Q 425.73 -23.18 425.73 -22.72 L 425.73 -22.72 Q 425.73 -22.31 425.5 -21.87 Q 425.27 -21.44 424.67 -20.75 L 424.67 -20.75 Q 423.89 -19.69 423.2 -19.69 L 423.2 -19.69 Q 422.74 -19.69 422.19 -20.15 L 422.19 -20.15 Z M 417.73 -1.47 Q 417.08 -2.12 417.08 -3.31 L 417.08 -3.31 Q 417.08 -3.96 417.31 -4.42 L 417.31 -4.42 Q 417.31 -4.65 417.4 -4.97 Q 417.5 -5.29 417.5 -5.38 L 417.5 -5.38 Q 417.45 -5.66 417.86 -6.9 L 417.86 -6.9 Q 418.69 -8.74 420.07 -13.39 L 420.07 -13.39 Q 420.07 -13.62 420.26 -13.78 Q 420.44 -13.94 420.81 -13.98 L 420.81 -13.98 Q 421.18 -14.08 421.31 -14.08 L 421.31 -14.08 Q 421.59 -14.08 421.8 -13.87 Q 422 -13.66 422.37 -13.11 L 422.37 -13.11 Q 422.65 -12.83 422.65 -12.28 L 422.65 -12.28 Q 422.65 -11.41 422.05 -10.17 L 422.05 -10.17 Q 421.45 -8.83 421.27 -7.87 L 421.27 -7.87 Q 420.72 -6.62 420.39 -5.57 L 420.39 -5.57 Q 420.3 -5.29 420.12 -4.46 Q 419.93 -3.63 419.61 -3.13 L 419.61 -3.13 Q 419.34 -1.84 419.11 -1.33 Q 418.88 -0.83 418.6 -0.83 L 418.6 -0.83 Q 418.28 -0.83 417.73 -1.47 L 417.73 -1.47 Z M 431.3 -2.81 Q 430.79 -3.17 430.03 -5.89 Q 429.27 -8.6 428.86 -11.13 L 428.86 -11.13 Q 428.67 -12.1 428.12 -13.75 L 428.12 -13.75 Q 427.94 -14.49 427.94 -14.77 L 427.94 -14.77 Q 427.94 -15.59 428.63 -16.01 L 428.63 -16.01 Q 428.81 -16.15 429.16 -16.21 Q 429.5 -16.28 429.73 -16.24 L 429.73 -16.24 Q 430.74 -15.87 431.57 -10.63 L 431.57 -10.63 Q 431.71 -9.29 431.99 -8.23 Q 432.26 -7.18 432.31 -6.99 L 432.31 -6.99 Q 432.45 -6.72 432.63 -6.42 Q 432.81 -6.12 433.04 -6.12 L 433.04 -6.12 Q 433.18 -6.12 433.37 -6.3 L 433.37 -6.3 Q 434.24 -7.18 435.25 -8.51 L 435.25 -8.51 Q 436.36 -10.03 436.77 -10.53 L 436.77 -10.53 Q 437.28 -11.32 438.1 -12.37 L 438.1 -12.37 Q 438.24 -12.56 438.75 -13.25 Q 439.25 -13.94 439.71 -14.42 Q 440.17 -14.9 440.5 -15 L 440.5 -15 Q 440.63 -15.04 440.91 -15.04 L 440.91 -15.04 Q 441.69 -15.04 441.69 -14.4 L 441.69 -14.4 Q 441.69 -13.8 440.86 -12.6 L 440.86 -12.6 Q 440.59 -12.24 440.29 -11.62 Q 439.99 -10.99 439.9 -10.9 L 439.9 -10.9 Q 439.39 -9.89 438.04 -8.05 Q 436.68 -6.21 436.22 -5.75 L 436.22 -5.75 Q 436.13 -5.66 435.46 -5.11 Q 434.79 -4.55 434.24 -3.77 L 434.24 -3.77 Q 432.77 -2.39 432.12 -2.39 L 432.12 -2.39 Q 431.71 -2.39 431.3 -2.81 L 431.3 -2.81 Z M 452 -1.61 Q 450.85 -0.6 449.24 -0.6 L 449.24 -0.6 Q 448.09 -0.6 447.05 -1.15 Q 446.02 -1.7 445.33 -2.67 L 445.33 -2.67 Q 444.73 -3.4 444.45 -4.32 Q 444.18 -5.24 444.18 -6.58 L 444.18 -6.58 Q 444.18 -7.04 444.27 -8.42 L 444.27 -8.42 Q 444.41 -10.12 445.4 -11.96 Q 446.38 -13.8 447.86 -15.25 Q 449.33 -16.7 450.75 -17.25 L 450.75 -17.25 Q 451.49 -17.71 452.09 -17.71 L 452.09 -17.71 Q 452.41 -17.71 452.73 -17.66 Q 453.05 -17.62 453.42 -17.57 L 453.42 -17.57 Q 454.43 -17.43 454.96 -17.18 Q 455.49 -16.93 455.86 -16.42 L 455.86 -16.42 Q 457.01 -15.27 457.01 -13.75 L 457.01 -13.75 Q 456.83 -12.65 455.58 -11.22 Q 454.34 -9.8 452.59 -8.92 L 452.59 -8.92 Q 451.77 -8.65 450.71 -8.65 L 450.71 -8.65 Q 449.28 -8.65 448.41 -9.25 L 448.41 -9.25 Q 447.99 -9.38 447.76 -9.38 L 447.76 -9.38 Q 447.35 -9.38 447.14 -8.83 Q 446.94 -8.28 446.75 -6.81 L 446.75 -6.81 Q 446.71 -6.49 446.71 -5.89 L 446.71 -5.89 Q 446.71 -3.54 448.27 -3.31 L 448.27 -3.31 Q 449.33 -3.08 449.79 -3.08 L 449.79 -3.08 Q 450.34 -3.08 451.03 -3.45 L 451.03 -3.45 L 451.9 -3.96 Q 452.18 -4.09 452.41 -4.32 Q 452.64 -4.55 452.82 -4.74 L 452.82 -4.74 Q 452.92 -4.83 453.1 -5.04 Q 453.28 -5.24 453.45 -5.31 Q 453.61 -5.38 453.74 -5.38 L 453.74 -5.38 Q 453.93 -5.38 454.16 -5.17 Q 454.39 -4.97 454.53 -4.88 L 454.53 -4.88 Q 454.94 -4.88 454.71 -4.3 Q 454.48 -3.73 453.72 -2.97 Q 452.96 -2.21 452 -1.61 L 452 -1.61 Z M 451.95 -11.36 Q 452.73 -11.68 453.54 -12.51 Q 454.34 -13.34 454.34 -13.89 L 454.34 -13.89 Q 454.34 -14.44 453.93 -14.81 Q 453.51 -15.18 452.78 -15.18 L 452.78 -15.18 Q 452.23 -15.18 451.95 -15.09 L 451.95 -15.09 Q 451.31 -14.9 450.43 -14.1 Q 449.56 -13.29 448.91 -12.47 Q 448.27 -11.64 448.41 -11.5 L 448.41 -11.5 Q 448.64 -11.09 450.2 -11.09 L 450.2 -11.09 Q 451.26 -11.09 451.95 -11.36 L 451.95 -11.36 Z M 460.92 -1.61 Q 460.55 -1.89 460.41 -2.12 Q 460.28 -2.35 460.28 -2.81 L 460.28 -2.81 Q 460.28 -3.22 460.32 -3.5 L 460.32 -3.5 Q 460.46 -5.06 461.01 -7.13 L 461.01 -7.13 L 461.24 -8.05 Q 461.38 -9.2 462.85 -12.88 Q 464.32 -16.56 465.24 -17.89 L 465.24 -17.89 Q 465.61 -18.12 466.03 -18.12 L 466.03 -18.12 Q 466.62 -18.12 467.04 -17.71 L 467.04 -17.71 Q 467.31 -17.53 467.31 -17.02 L 467.31 -17.02 Q 467.31 -16.56 466.97 -15.66 Q 466.62 -14.77 465.8 -13.02 L 465.8 -13.02 Q 465.61 -12.65 465.18 -11.64 Q 464.74 -10.63 464.74 -10.44 L 464.74 -10.44 Q 464.74 -10.35 464.78 -10.35 L 464.78 -10.35 Q 464.88 -10.35 464.97 -10.42 Q 465.06 -10.49 465.15 -10.53 L 465.15 -10.53 Q 465.66 -11.41 467.61 -12.93 Q 469.57 -14.44 470.3 -14.81 L 470.3 -14.81 Q 470.63 -15 471.13 -15.18 Q 471.64 -15.36 471.82 -15.46 L 471.82 -15.46 Q 472.56 -15.82 473.57 -15.82 L 473.57 -15.82 Q 474.21 -15.82 474.7 -15.62 Q 475.18 -15.41 475.36 -15 L 475.36 -15 Q 475.41 -14.67 475.62 -14.49 Q 475.82 -14.31 475.92 -14.26 L 475.92 -14.26 Q 476.05 -14.26 476.1 -14.14 Q 476.15 -14.03 476.15 -13.98 L 476.15 -13.98 Q 476.15 -13.66 475.78 -13.59 Q 475.41 -13.52 474.44 -13.48 L 474.44 -13.48 Q 473.94 -13.43 473.39 -13.25 Q 472.83 -13.06 472.28 -12.79 L 472.28 -12.79 Q 469.71 -11.32 468.44 -10.49 Q 467.18 -9.66 465.89 -8.23 L 465.89 -8.23 Q 465.38 -7.68 464.55 -6.26 L 464.55 -6.26 Q 464.23 -5.93 463.89 -4.58 Q 463.54 -3.22 463.54 -2.9 L 463.54 -2.9 Q 463.5 -2.76 463.36 -2.37 Q 463.22 -1.98 462.94 -1.61 L 462.94 -1.61 Q 462.39 -0.87 462.02 -0.87 L 462.02 -0.87 Q 461.61 -0.87 460.92 -1.61 L 460.92 -1.61 Z M 491.23 -16.97 Q 491.97 -16.24 491.97 -15.46 L 491.97 -15.46 Q 491.97 -14.63 490.87 -12.56 L 490.87 -12.56 Q 490.5 -11.5 490.06 -10.58 Q 489.62 -9.66 489.39 -9.38 L 489.39 -9.38 L 488.34 -6.95 Q 487.65 -5.43 486.63 -3.4 L 486.63 -3.4 Q 485.39 -0.83 484.89 0.41 L 484.89 0.41 L 484.29 1.38 Q 481.99 5.06 480.75 6.53 L 480.75 6.53 Q 478.22 8.79 476.84 9.15 L 476.84 9.15 Q 476.24 9.34 475.41 9.34 L 475.41 9.34 Q 473.89 9.34 472.54 8.67 Q 471.18 8 470.99 7.13 L 470.99 7.13 Q 470.95 6.81 471.22 6.44 Q 471.5 6.07 471.82 6.07 L 471.82 6.07 Q 472.05 6.07 472.19 6.26 L 472.19 6.26 Q 472.56 6.53 473.27 6.79 Q 473.98 7.04 474.81 7.04 L 474.81 7.04 Q 475.13 7.04 475.69 6.95 L 475.69 6.95 Q 476.61 6.76 477.62 5.84 Q 478.63 4.92 479.46 3.82 L 479.46 3.82 Q 481.02 1.52 482.82 -1.93 L 482.82 -1.93 Q 482.17 -2.12 481.57 -2.83 Q 480.98 -3.54 480.63 -4.32 Q 480.29 -5.11 480.38 -5.47 L 480.38 -5.47 L 480.38 -5.98 Q 479.96 -5.98 479.71 -7.54 Q 479.46 -9.11 479.46 -11.18 L 479.46 -11.18 Q 479.46 -11.96 479.55 -13.16 L 479.55 -13.16 Q 479.73 -13.89 479.76 -14.97 Q 479.78 -16.05 479.78 -16.38 L 479.78 -16.38 L 479.78 -16.56 Q 479.78 -17.11 479.9 -17.34 Q 480.01 -17.57 480.29 -17.76 L 480.29 -17.76 Q 480.65 -17.94 481.02 -17.94 L 481.02 -17.94 Q 482.31 -17.94 482.31 -14.54 L 482.31 -14.54 Q 482.31 -14.03 482.22 -12.56 L 482.22 -12.56 Q 482.17 -11.91 482.17 -10.63 L 482.17 -10.63 Q 482.17 -8.23 482.59 -6.39 Q 483 -4.55 483.83 -3.86 L 483.83 -3.86 L 484.1 -4.51 Q 484.61 -5.84 484.89 -6.21 L 484.89 -6.21 Q 485.53 -7.54 485.62 -7.91 L 485.62 -7.91 Q 485.71 -8.23 486.13 -8.97 L 486.13 -8.97 L 486.73 -10.21 Q 486.82 -10.49 487.32 -11.98 Q 487.83 -13.48 488.34 -14.4 L 488.34 -14.4 Q 488.52 -14.77 488.89 -15.48 Q 489.26 -16.19 489.49 -16.51 Q 489.72 -16.84 489.99 -16.93 L 489.99 -16.93 Q 490.36 -17.25 490.59 -17.25 L 490.59 -17.25 Q 490.77 -17.25 491.23 -16.97 L 491.23 -16.97 Z" stroke-linecap="round" />
</g>
</g>
</g>
<g transform="matrix(0.42663291867474634 0.007446905295982668 -0.007446905295982668 0.42663291867474634 666.3077647330413 240.82627374144926)" id="shape-f88d12e1-8ff1-409d-8b6e-b5c8650d4f55"  >
<g style=""  paint-order="stroke"   >
		<g transform="matrix(1 0 0 1 0 0)" id="Path_01"  >
<path style="stroke: none; stroke-width: 1; stroke-dasharray: none; stroke-linecap: butt; stroke-dashoffset: 0; stroke-linejoin: miter; stroke-miterlimit: 4; fill: rgb(4,72,148); fill-rule: nonzero; opacity: 1;"  paint-order="stroke"  transform=" translate(-110.00483479513068, -125.05000000000001)" d="M 159.4 0 L 0 0 L 0 11 L 0 11 C 9.3 11 16.9 18.6 16.9 27.9 L 16.9 222.20000000000002 C 16.9 231.50000000000003 9.299999999999999 239.10000000000002 0 239.10000000000002 L 0 239.10000000000002 L 0 250.10000000000002 L 96.2 250.10000000000002 L 96.2 239.10000000000002 L 96.2 239.10000000000002 C 88.10000000000001 239.10000000000002 81.60000000000001 232.60000000000002 81.60000000000001 224.50000000000003 L 81.60000000000001 121.2 L 158.4 121.2 C 191.60000000000002 121.2 219.4 94.9 220 61.6 C 220.6 27.7 193.2 0 159.4 0 z M 123.7 110.2 L 81.7 110.2 L 81.7 11 L 124.30000000000001 11.3 C 148.3 14.100000000000001 166.9 35 166.9 60.400000000000006 C 166.8 86 147.9 107.7 123.7 110.2 z" stroke-linecap="round" />
</g>
</g>
</g>
<g transform="matrix(-0.42663291867474634 -0.007446905295982639 -0.007446905295982639 0.42663291867474634 618.4472805168214 240.82627374144926)" id="shape-a88d29bb-8abf-47af-a7bf-24dde7d28623"  >
<g style=""  paint-order="stroke"   >
		<g transform="matrix(1 0 0 1 0 0)" id="Path_01"  >
<path style="stroke: none; stroke-width: 1; stroke-dasharray: none; stroke-linecap: butt; stroke-dashoffset: 0; stroke-linejoin: miter; stroke-miterlimit: 4; fill: rgb(4,72,148); fill-rule: nonzero; opacity: 1;"  paint-order="stroke"  transform=" translate(-110.00483479513068, -125.05000000000001)" d="M 159.4 0 L 0 0 L 0 11 L 0 11 C 9.3 11 16.9 18.6 16.9 27.9 L 16.9 222.20000000000002 C 16.9 231.50000000000003 9.299999999999999 239.10000000000002 0 239.10000000000002 L 0 239.10000000000002 L 0 250.10000000000002 L 96.2 250.10000000000002 L 96.2 239.10000000000002 L 96.2 239.10000000000002 C 88.10000000000001 239.10000000000002 81.60000000000001 232.60000000000002 81.60000000000001 224.50000000000003 L 81.60000000000001 121.2 L 158.4 121.2 C 191.60000000000002 121.2 219.4 94.9 220 61.6 C 220.6 27.7 193.2 0 159.4 0 z M 123.7 110.2 L 81.7 110.2 L 81.7 11 L 124.30000000000001 11.3 C 148.3 14.100000000000001 166.9 35 166.9 60.400000000000006 C 166.8 86 147.9 107.7 123.7 110.2 z" stroke-linecap="round" />
</g>
</g>
</g>
</svg>